<svg width="1440" height="1249" viewBox="0 0 1440 1249" fill="none" xmlns="http://www.w3.org/2000/svg">
    <g clip-path="url(#clip0_0_5)" filter="url(#filter0_b_0_5)">
        <path opacity="0.15"
            d="M1246.02 129.629C1263.08 174.331 1276.75 252.255 1250.76 307.737C1248.08 313.457 1222.95 365.365 1185.48 359.452C1139.85 352.25 1130.82 267.933 1080.51 246.674C1026.03 223.652 993.673 304.393 967.119 280.069C935.719 251.306 932.483 94.0048 989.8 25.8146C1058.85 -56.3325 1200.15 9.4323 1246.02 129.629Z"
            fill="#72B05C" />
        <path opacity="0.15"
            d="M334.903 588.12C316.541 615.853 301.243 667.818 327.494 712.862C330.2 717.506 355.615 759.835 394.654 764.097C442.205 769.289 452.764 711.763 505.372 708.078C562.343 704.088 594.861 768.409 622.811 757.208C655.861 743.964 661.417 633.58 602.769 572.502C532.117 498.923 384.277 513.55 334.903 588.12Z"
            fill="#72B05C" />
        <path opacity="0.15"
            d="M652.376 843.364C660.868 793.268 689.548 703.244 740.811 633.156C746.096 625.93 794.766 560.219 824.044 560.94C859.706 561.817 823.695 660.194 856.091 676.94C891.173 695.076 961.054 593.996 971.346 618.359C983.515 647.167 904.592 832.978 819.678 923.376C717.383 1032.28 629.544 978.066 652.376 843.364Z"
            fill="#72B05C" />
        <path opacity="0.15"
            d="M716.08 360.248C718.149 330.59 708.944 278.761 673.914 241.573C670.302 237.738 636.873 202.939 608.531 206.58C574.01 211.015 588.566 267.142 553.945 280.909C516.451 295.817 469.831 241.743 454.937 257.743C437.326 276.662 475.324 381.482 538.606 427.392C614.84 482.698 710.517 439.996 716.08 360.248Z"
            fill="#72B05C" />
        <path opacity="0.15"
            d="M1151.82 498.751C1135.53 460.447 1092.34 396.269 1028.75 356.342C1022.19 352.226 961.939 315.004 931.716 325.755C894.904 338.85 946.93 407.363 915.876 432.392C882.246 459.497 794.726 400.51 787.711 424.142C779.415 452.085 888.981 577.705 990.477 622.681C1112.75 676.862 1195.63 601.747 1151.82 498.751Z"
            fill="#558543" />
        <path opacity="0.15"
            d="M1377.47 540.555C1391.57 565.7 1407.01 616.03 1397.7 666.304C1396.74 671.487 1387.56 718.855 1365.68 729.762C1339.02 743.046 1325.59 686.256 1294.89 691.355C1261.65 696.876 1251.21 767.828 1233.72 761.127C1213.03 753.202 1195.7 641.759 1221.58 569.713C1252.74 482.92 1339.55 472.942 1377.47 540.555Z"
            fill="#558543" />
        <path opacity="0.15"
            d="M210.314 419.076C236.487 463.358 275.332 551.094 287.921 636.994C289.219 645.851 300.651 726.757 282.337 743.997C260.03 764.995 220.43 666.279 190.184 672.899C157.429 680.069 178.056 801.491 156.529 788.724C131.074 773.628 62.9332 580.543 58.1636 458.322C52.4177 311.085 139.939 300.006 210.314 419.076Z"
            fill="#72B05C" />
        <path opacity="0.15"
            d="M979.476 1103.44C953.59 1059.31 928.431 970.81 954.895 882.068C957.624 872.918 983.404 789.301 1030.57 769.776C1088.02 745.996 1108.08 845.911 1172.81 836.504C1242.91 826.317 1274.63 701.111 1310.17 712.683C1352.2 726.367 1372.73 922.564 1308.68 1049.91C1231.52 1203.32 1049.08 1222.1 979.476 1103.44Z"
            fill="#72B05C" />
        <path opacity="0.15"
            d="M719.932 1035.58C706.115 988.835 665.623 911.765 600.328 866.731C593.596 862.088 531.668 820.18 497.552 836.061C456 855.404 505.699 937.208 469.195 971.062C429.663 1007.72 340.222 940.682 330.11 970.877C318.153 1006.58 424.754 1155.45 530.908 1203.81C658.79 1262.07 757.084 1161.29 719.932 1035.58Z"
            fill="#558543" />
        <path opacity="0.15"
            d="M483.103 -1.79183C530.31 2.0547 589.114 23.5628 578.773 71.7777C577.706 76.7487 566.831 122.614 509.126 154.535C438.841 193.415 383.639 164.833 299.517 201.868C208.417 241.975 201.358 307.105 150.429 320.919C90.2056 337.253 7.09903 271.404 56.8943 188.774C116.882 89.2326 356.167 -12.1348 483.103 -1.79183Z"
            fill="#558543" />
        <path opacity="0.15"
            d="M277.075 1124.17C296.161 1073.31 316.286 976.113 301.39 887.941C299.854 878.85 285.246 795.921 253.916 783.951C215.756 769.37 198.697 877.601 155.099 879.381C107.885 881.308 90.6801 755.898 66.1649 774.402C37.1763 796.282 16.478 1005.42 55.5443 1127.26C102.607 1274.04 225.752 1260.93 277.075 1124.17Z"
            fill="#558543" />
    </g>
    <defs>
        <filter id="filter0_b_0_5" x="-160" y="-160" width="1760" height="1569" filterUnits="userSpaceOnUse"
            color-interpolation-filters="sRGB">
            <feFlood flood-opacity="0" result="BackgroundImageFix" />
            <feGaussianBlur in="BackgroundImageFix" stdDeviation="80" />
            <feComposite in2="SourceAlpha" operator="in" result="effect1_backgroundBlur_0_5" />
            <feBlend mode="normal" in="SourceGraphic" in2="effect1_backgroundBlur_0_5" result="shape" />
        </filter>
        <clipPath id="clip0_0_5">
            <rect width="1440" height="1249" fill="white" />
        </clipPath>
    </defs>
</svg>